<?xml version="1.0" encoding="iso-8859-1"?>
<!-- Generator: Adobe Illustrator 17.1.0, SVG Export Plug-In . SVG Version: 6.00 Build 0)  -->
<!DOCTYPE svg PUBLIC "-//W3C//DTD SVG 1.1//EN" "http://www.w3.org/Graphics/SVG/1.1/DTD/svg11.dtd">
<svg version="1.1" id="Capa_1" xmlns="http://www.w3.org/2000/svg" xmlns:xlink="http://www.w3.org/1999/xlink" x="0px" y="0px"
	 viewBox="0 0 199.167 199.167" style="enable-background:new 0 0 199.167 199.167;" xml:space="preserve">
<path d="M99.583,199.167c-10.49,0-20.646-3.071-29.372-8.88c-14.622-9.735-33.786-27.442-42.052-56.508
	C12.729,79.522,21.012,7.221,21.097,6.498c0.108-0.915,0.826-1.637,1.74-1.75C48.202,1.597,74.023,0,99.583,0
	s51.381,1.597,76.747,4.747c0.914,0.114,1.632,0.836,1.74,1.75c0.085,0.724,8.368,73.024-7.063,127.281
	c-8.267,29.066-27.431,46.772-42.052,56.508C120.229,196.096,110.073,199.167,99.583,199.167z M24.903,8.523
	c-1.104,10.772-6.857,75.07,7.104,124.161c7.933,27.894,26.36,44.91,40.421,54.273c8.066,5.371,17.457,8.209,27.155,8.209
	s19.088-2.839,27.155-8.209c14.061-9.363,32.488-26.379,40.421-54.273c13.967-49.108,8.209-113.391,7.105-124.161
	C149.568,5.522,124.451,4,99.583,4C74.716,4,49.599,5.522,24.903,8.523z M99.583,159.987c-8.316,0-16.601-3.055-26.073-9.613
	c-2.668-1.848-5.237-3.937-7.635-6.209c-15.951-15.118-18.808-29.351-18.922-29.949c-0.154-0.809,0.205-1.63,0.902-2.067
	c0.697-0.438,1.591-0.404,2.254,0.088c0.114,0.084,11.563,8.507,24.718,12.477c13.232,3.993,24.642,4.039,24.755,4.039
	c0.113,0,11.557-0.056,24.755-4.039c13.18-3.978,24.604-12.392,24.718-12.477c0.663-0.491,1.558-0.526,2.255-0.088
	c0.698,0.438,1.056,1.258,0.902,2.068c-0.114,0.599-2.971,14.831-18.922,29.949c-2.397,2.272-4.966,4.361-7.635,6.209
	C116.185,156.932,107.899,159.987,99.583,159.987z M52.626,118.727c2.157,5.245,6.744,13.761,16.001,22.534
	c2.25,2.132,4.659,4.092,7.161,5.824c8.771,6.073,16.333,8.902,23.796,8.902s15.025-2.829,23.796-8.902
	c2.502-1.732,4.911-3.692,7.16-5.824c9.257-8.773,13.844-17.289,16.001-22.534c-4.75,2.959-12.472,7.227-21.047,9.814
	c-13.792,4.162-25.422,4.21-25.911,4.21s-12.119-0.048-25.911-4.21C65.098,125.954,57.376,121.686,52.626,118.727z M55.921,81.866
	c-0.528,0-1.045-0.209-1.428-0.6c-3.485-3.553-5.405-8.245-5.405-13.211c0-10.408,8.467-18.875,18.875-18.875
	s18.875,8.467,18.875,18.875c0,0.256-0.016,0.507-0.032,0.759l-0.016,0.251c-0.042,0.792-0.548,1.484-1.29,1.764L56.627,81.737
	C56.397,81.824,56.158,81.866,55.921,81.866z M67.963,53.18c-8.202,0-14.875,6.673-14.875,14.875c0,3.484,1.199,6.796,3.402,9.458
	l26.34-9.951C82.568,59.587,76,53.18,67.963,53.18z M143.246,81.866c-0.237,0-0.476-0.042-0.707-0.129L113.667,70.83
	c-0.742-0.28-1.248-0.972-1.29-1.764l-0.016-0.254c-0.017-0.25-0.033-0.501-0.033-0.756c0-10.408,8.467-18.875,18.875-18.875
	s18.875,8.467,18.875,18.875c0,4.967-1.919,9.659-5.405,13.212C144.291,81.657,143.773,81.866,143.246,81.866z M116.337,67.562
	l26.34,9.951c2.202-2.661,3.401-5.974,3.401-9.458c0-8.202-6.673-14.875-14.875-14.875C123.167,53.18,116.598,59.587,116.337,67.562
	z"/>
<g>
</g>
<g>
</g>
<g>
</g>
<g>
</g>
<g>
</g>
<g>
</g>
<g>
</g>
<g>
</g>
<g>
</g>
<g>
</g>
<g>
</g>
<g>
</g>
<g>
</g>
<g>
</g>
<g>
</g>
</svg>
