<svg height="480pt" viewBox="0 -88 480 480" width="480pt" xmlns="http://www.w3.org/2000/svg"><path d="m472 0h-416c-4.417969 0-8 3.582031-8 8v8h-40c-4.417969 0-8 3.582031-8 8v64c0 4.417969 3.582031 8 8 8h40v24c0 4.417969 3.582031 8 8 8h136v96c0 4.417969 3.582031 8 8 8h124.238281l11.898438 65.433594c.691406 3.800781 4 6.5625 7.863281 6.566406h112c2.371094-.003906 4.621094-1.054688 6.136719-2.878906 1.519531-1.820313 2.152343-4.21875 1.726562-6.554688l-30.261719-166.566406h38.398438c4.417969 0 8-3.582031 8-8v-112c0-4.417969-3.582031-8-8-8zm-456 80v-48h32v48zm192 136v-88h16v64c0 4.417969 3.582031 8 8 8h86.398438l2.914062 16zm48-88v40c0 4.417969 3.582031 8 8 8h16c3.441406-.003906 6.496094-2.207031 7.585938-5.472656l14.175781-42.527344h3.566406l10.183594 56h-75.511719v-56zm16 0h12.894531l-10.664062 32h-2.230469zm174.398438 160h-95.71875l-29.078126-160h95.71875zm17.601562-176h-400v-96h400zm0 0"/><path d="m360 256h16v16h-16zm0 0"/><path d="m392 256v16h25.65625c2.371094-.003906 4.617188-1.054688 6.136719-2.878906 1.519531-1.820313 2.152343-4.21875 1.726562-6.554688l-20.351562-112-15.734375 2.867188 18.636718 102.566406zm0 0"/><path d="m432 32h16v64h-16zm0 0"/><path d="m384 32h16v64h-16zm0 0"/><path d="m336 32h16v64h-16zm0 0"/><path d="m96 48h32v-16h-40c-4.417969 0-8 3.582031-8 8v48h16zm0 0"/><path d="m144 32h16v16h-16zm0 0"/></svg>