<?xml version="1.0" encoding="iso-8859-1"?>
<!-- Generator: Adobe Illustrator 18.0.0, SVG Export Plug-In . SVG Version: 6.00 Build 0)  -->
<!DOCTYPE svg PUBLIC "-//W3C//DTD SVG 1.1//EN" "http://www.w3.org/Graphics/SVG/1.1/DTD/svg11.dtd">
<svg version="1.1" id="Capa_1" xmlns="http://www.w3.org/2000/svg" xmlns:xlink="http://www.w3.org/1999/xlink" x="0px" y="0px"
	 viewBox="0 0 310.621 310.621" style="enable-background:new 0 0 310.621 310.621;" xml:space="preserve">
<path id="_x31_0-Sad_Mask" d="M155.308,0C42.665,0,32.97,36.883,32.97,95.576c0,101.169,54.771,215.045,122.338,215.045
	c67.568,0,122.344-113.876,122.344-215.045C277.651,36.883,267.951,0,155.308,0z M68.359,103.708h69.79
	c0,14.135-15.625,25.595-34.895,25.595C83.985,129.303,68.359,117.843,68.359,103.708z M199.429,238.773
	c-7.327-11.653-24.322-19.815-44.121-19.815c-19.797,0-36.787,8.161-44.12,19.815c-2.483-3.945-3.859-8.288-3.859-12.852
	c0-18.036,21.483-32.664,47.979-32.664c26.502,0,47.98,14.628,47.98,32.664C203.288,230.485,201.911,234.828,199.429,238.773z
	 M207.362,129.303c-19.27,0-34.891-11.46-34.891-25.595h69.785C242.257,117.843,226.636,129.303,207.362,129.303z"/>
<g>
</g>
<g>
</g>
<g>
</g>
<g>
</g>
<g>
</g>
<g>
</g>
<g>
</g>
<g>
</g>
<g>
</g>
<g>
</g>
<g>
</g>
<g>
</g>
<g>
</g>
<g>
</g>
<g>
</g>
</svg>
