<?xml version="1.0" encoding="iso-8859-1"?>
<!-- Generator: Adobe Illustrator 19.0.0, SVG Export Plug-In . SVG Version: 6.00 Build 0)  -->
<svg version="1.1" id="Capa_1" xmlns="http://www.w3.org/2000/svg" xmlns:xlink="http://www.w3.org/1999/xlink" x="0px" y="0px"
	 viewBox="0 0 496 496" style="enable-background:new 0 0 496 496;" xml:space="preserve">
<g>
	<g>
		<g>
			<path d="M493.168,464.992l-75.28-127.976c2.472-5.384,3-11.664,1.016-17.632l-5.256-15.76c-0.984-2.96-2.6-5.576-4.56-7.888
				C418.816,276.032,424,254.12,424,232c0-20.232-4.32-40.312-12.504-58.68c9.208-2.168,18.424-4.08,27.64-5.4l9.48-1.36
				l-3.032-9.096c-0.384-1.168-9.992-27.824-59.328-29.328c-11.92-16.4-66.688-84.376-148.32-75.152L254,26.216V0h-65.224
				l8.096,56.656L162.12,8H126v52.944l40.352,20.176c-71.44,54.744-40.296,160.824-33.144,182.008
				c-14.856,26.04-7.32,57.432-6.968,58.808l3.024,12.096l9.736-7.784c6.424-5.144,13.216-10.48,20.168-15.88
				c6.48,10.008,14.088,19.032,22.592,26.984c-2.216,3.752-4.528,7.944-7.08,12.584c-14.064,25.648-32.928,59.928-62.68,65.272V368
				H0v72c0,30.872,25.128,56,56,56c96.304,0,138.392-82.584,163.56-133.2c10.616,4.896,21.88,8.504,33.576,10.696
				c-8.84,7.952-15.896,15.56-20,22.392C208.288,437.304,208,485.952,208,488v8h267.424c11.344,0,20.576-9.232,20.576-20.576
				C496,471.776,495.024,468.168,493.168,464.992z M428.232,386.168l-28.432,36.96l-27.576-42.896l21.992-26.392
				c2.136-0.904,4.256-1.8,6.112-2.584l5.184-2.2c0.232-0.104,0.464-0.2,0.696-0.312L428.232,386.168z M370.064,226.76
				c-9.072-12.12-26.056-15.032-38.68-6.624c-1.864,1.24-4.312,1.168-6.112-0.176l-12.736-9.552
				c27.088-13.584,55.016-25.088,83.184-33.088C403.752,194.312,408,213.072,408,232c0,19.304-4.432,38.424-12.776,55.672
				c-3.376-0.624-6.8-0.504-10.12,0.328h-2.608c-7.208,0-13.992-2.808-19.096-7.904c-1.84-1.84-2.76-4.296-2.576-6.896
				c0.184-2.6,1.44-4.888,3.52-6.464c6.112-4.576,10.064-11.256,11.144-18.808C376.568,240.376,374.64,232.856,370.064,226.76z
				 M238,16v5.784l-21.128,35.208c-1.2,0.32-2.424,0.728-3.64,1.088L207.224,16H238z M202.104,80.704
				c14.032,2.472,55.752,12.4,88.064,46.68l11.64-10.984c-24.2-25.656-52.76-38.904-73.688-45.648
				c34.096-7.232,67.264-0.072,98.92,21.552c18.728,12.792,32.584,27.904,40.52,37.712c-11.976,2.752-27.184,8.216-44.152,15.488
				c-3.256-5.608-6.784-11.056-10.64-16.144l-12.752,9.656c3.12,4.12,5.976,8.528,8.672,13.04
				c-35.368,16.288-75.688,38.48-108.72,58.992C168.52,149.92,193.52,96.032,202.104,80.704z M142,51.056V24h11.88l32.064,44.888
				c-1.36,0.696-2.68,1.424-3.984,2.144L142,51.056z M136,186c0-42.664,14.64-74.408,43.56-94.712
				c-10.72,27.44-20.968,75.56,6.848,128.376c-17.2,11.136-31.536,21.376-40.872,29.408C141.56,235.496,136,211.896,136,186z
				 M140.08,304.96c-0.496-10.224,0.648-24.632,8.576-36.52C161.976,248.464,334.816,144,382,144
				c22.288,0,34.608,5.376,41.232,10.336C317.816,174.112,213.56,247.04,140.08,304.96z M96,440c0,22.056-17.944,40-40,40
				c-22.056,0-40-17.944-40-40v-24h80V440z M96,400H16v-16h80V400z M102.12,471.696C108.336,462.672,112,451.76,112,440v-8.512
				c38.96-5.016,61.48-46.088,76.712-73.856c1.968-3.6,3.8-6.92,5.512-9.92c3.624,2.688,7.36,5.208,11.216,7.544
				C186.6,393.16,157.584,450.472,102.12,471.696z M171.928,300.552c36.656-27.88,79.296-57.528,124.848-81.976l18.904,14.184
				c7.216,5.408,17.104,5.672,24.584,0.688c5.552-3.68,13.016-2.416,17.008,2.904c4.152,5.544,3.032,13.432-2.512,17.584
				c-5.776,4.32-9.376,10.928-9.88,18.128c-0.52,7.192,2.12,14.24,7.216,19.344c3.296,3.296,7.112,5.816,11.16,7.856
				c-29.208,16.728-65.672,38.984-93.288,60.296C229.584,356.424,193.56,334.672,171.928,300.552z M246.856,404.12
				c12.344-20.576,64.744-57.928,140.168-99.904c0.184-0.104,0.352-0.128,0.528-0.208h6.592c2.016,0.92,3.608,2.568,4.328,4.688
				l5.248,15.76c1.328,3.992-0.576,8.24-4.448,9.872l-5.168,2.184c-34.912,14.76-107.504,45.448-150.688,73.728
				C244.496,408.176,245.648,406.136,246.856,404.12z M361.704,367.856l-34.816,41.776l-11.136-20.672
				C331.536,381.352,347.4,374.152,361.704,367.856z M268.248,480h-43.856c0.68-8.848,2.52-24.104,7.488-40.968
				c5.544-5.272,13.28-10.92,22.328-16.728l23.296,46.592L268.248,480z M267.92,413.952c10.328-5.984,21.688-12.032,33.456-17.936
				l14.464,26.864l-27.168,32.6L267.92,413.952z M289.088,480l34.944-41.928L346.608,480H289.088z M335.064,424.824l26.424-31.712
				L389.44,436.6l-28.256,36.736L335.064,424.824z M376.248,480l22.392-29.104L417.352,480H376.248z M475.424,480h-39.056
				L409,437.424l27.984-36.384l42.376,72.04c0.424,0.72,0.64,1.52,0.64,2.336C480,477.944,477.944,480,475.424,480z"/>
			<path d="M16,339.312V352h16v-12.688c0-9.432-3.672-18.296-10.344-24.968C18.008,310.696,16,305.84,16,300.688V288H0v12.688
				c0,9.432,3.672,18.296,10.344,24.968C13.992,329.304,16,334.152,16,339.312z"/>
			<path d="M48,339.312V352h16v-12.688c0-9.432-3.672-18.296-10.344-24.968C50.008,310.696,48,305.84,48,300.688V288H32v12.688
				c0,9.432,3.672,18.296,10.344,24.968C45.992,329.304,48,334.152,48,339.312z"/>
			<path d="M80,339.312V352h16v-12.688c0-9.432-3.672-18.296-10.344-24.968C82.008,310.696,80,305.84,80,300.688V288H64v12.688
				c0,9.432,3.672,18.296,10.344,24.968C77.992,329.304,80,334.152,80,339.312z"/>
		</g>
	</g>
</g>
<g>
</g>
<g>
</g>
<g>
</g>
<g>
</g>
<g>
</g>
<g>
</g>
<g>
</g>
<g>
</g>
<g>
</g>
<g>
</g>
<g>
</g>
<g>
</g>
<g>
</g>
<g>
</g>
<g>
</g>
</svg>
