<svg height="496pt" viewBox="0 -104 496 496" width="496pt" xmlns="http://www.w3.org/2000/svg"><path d="m152 240h16v16h-16zm0 0"/><path d="m240 240h16v16h-16zm0 0"/><path d="m328 240h16v16h-16zm0 0"/><path d="m416 240h16v16h-16zm0 0"/><path d="m496 147.71875-53.574219-35.71875h-19.867187l-12.144532-60.703125c-2.230468-11.175781-12.125-19.296875-23.535156-19.296875h-2.878906v-16c0-8.824219-7.175781-16-16-16h-112c-8.824219 0-16 7.175781-16 16v16h-2.878906c-10.25 0-19.226563 6.566406-22.570313 16h-152.773437c-2.777344-4.761719-7.882813-8-13.777344-8h-32c-8.824219 0-16 7.175781-16 16v32c0 8.824219 7.175781 16 16 16h32c5.894531 0 11-3.238281 13.777344-8h142.863281l-3.199219 16h-13.625c-10.601562 0-19.824218 6.808594-22.945312 16.945312l-14.472656 47.054688h-70.398438v48h16.207031c-5.078125 6.703125-8.207031 14.960938-8.207031 24 0 22.054688 17.945312 40 40 40h328c22.054688 0 40-17.945312 40-40 0-19.648438-14.265625-35.945312-32.96875-39.289062l32.96875-46.152344zm-101.273438-93.285156 11.511719 57.566406h-86.238281v-64h66.878906c3.808594 0 7.105469 2.703125 7.847656 6.433594zm53.273438 193.566406c0 13.230469-10.769531 24-24 24s-24-10.769531-24-24 10.769531-24 24-24 24 10.769531 24 24zm-312 0c0-13.230469 10.769531-24 24-24s24 10.769531 24 24-10.769531 24-24 24-24-10.769531-24-24zm55.792969-24h24.40625c-5.070313 6.703125-8.199219 14.960938-8.199219 24s3.128906 17.296875 8.207031 24h-24.40625c5.070313-6.703125 8.199219-14.960938 8.199219-24s-3.128906-17.296875-8.207031-24zm32.207031 24c0-13.230469 10.769531-24 24-24s24 10.769531 24 24-10.769531 24-24 24-24-10.769531-24-24zm55.792969-24h24.40625c-5.070313 6.703125-8.199219 14.960938-8.199219 24s3.128906 17.296875 8.207031 24h-24.40625c5.070313-6.703125 8.199219-14.960938 8.199219-24s-3.128906-17.296875-8.207031-24zm32.207031 24c0-13.230469 10.769531-24 24-24s24 10.769531 24 24-10.769531 24-24 24-24-10.769531-24-24zm55.792969-24h24.40625c-5.070313 6.703125-8.199219 14.960938-8.199219 24s3.128906 17.296875 8.207031 24h-24.40625c5.070313-6.703125 8.199219-14.960938 8.199219-24s-3.128906-17.296875-8.207031-24zm-111.792969-208h112v16h-112zm-128 48v16h-64v-16zm-112 24v-32h32l.015625 32zm128-8v-16h67.039062l-3.199218 16zm85.273438-25.574219c.742187-3.722656 4.039062-6.425781 7.847656-6.425781h66.878906v64h-86.238281zm-49.105469 79.230469c1.039062-3.382812 4.121093-5.65625 7.65625-5.65625h196.175781v32h-25.136719c-3.574219-13.769531-15.992187-24-30.863281-24-17.648438 0-32 14.351562-32 32s14.351562 32 32 32c14.871094 0 27.289062-10.230469 30.863281-24h25.136719v32h-226.703125zm161.609375 42.34375c-2.777344 4.761719-7.882813 8-13.777344 8-8.824219 0-16-7.175781-16-16s7.175781-16 16-16c5.894531 0 11 3.238281 13.777344 8h-13.777344v16zm-245.777344 16h49.472656l-4.921875 16h-44.550781zm8 56c0-13.230469 10.769531-24 24-24h.207031c-5.078125 6.703125-8.207031 14.960938-8.207031 24s3.128906 17.296875 8.207031 24h-.207031c-13.230469 0-24-10.769531-24-24zm376 0c0 13.230469-10.769531 24-24 24h-.207031c5.078125-6.703125 8.207031-14.960938 8.207031-24s-3.128906-17.296875-8.207031-24h.207031c13.230469 0 24 10.769531 24 24zm0-90.558594-36.113281 50.558594h-43.886719v-80h37.574219l42.425781 28.28125zm0 0"/><path d="m416 144h24v16h-24zm0 0"/><path d="m416 176h24v16h-24zm0 0"/><path d="m248 192v-48h-43.3125l-24 24 24 24zm-36.6875-32h20.6875v16h-20.6875l-8-8zm0 0"/><path d="m352 72h16v16h-16zm0 0"/></svg>